<svg width="92.000000" height="168.000000" viewBox="0 0 92 168" fill="none" xmlns="http://www.w3.org/2000/svg" xmlns:xlink="http://www.w3.org/1999/xlink">
	<desc>
			Created with Pixso.
	</desc>
	<defs/>
	<circle id="Ellipse 1" cx="77.000000" cy="15.000000" r="15.000000" fill="#FFFFFF" fill-opacity="1.000000"/>
	<path id="16" d="M59.96 27.93Q58.18 28.52 57.76 28.87Q57.35 29.22 57.15 29.44Q57.15 27.01 57.88 25.75Q57.92 25.68 57.96 25.62Q58.76 24.48 61.2 24.48Q63.78 24.48 66.91 25.12Q68.06 25.35 68.3 25.35Q69.02 25.35 69.92 22.37Q70.82 19.37 70.82 18.18Q70.82 18.16 70.82 18.14Q70.75 17.2 67.25 16.51Q63.69 15.79 58.86 15.79Q52.58 15.79 49.16 18.91Q48.74 19.29 48.37 19.72Q44.92 23.65 44.92 32.55Q44.92 41.45 48.6 45.43Q48.96 45.82 49.35 46.18Q52.99 49.41 59.5 49.41Q62.86 49.41 65.36 48.66Q67.88 47.89 69.23 46.79Q69.72 46.39 70.14 45.92Q70.88 45.1 71.39 44.08Q72.2 42.46 72.41 41.16Q72.62 39.84 72.62 37.27Q72.62 36.31 72.5 35.36Q72.31 33.76 71.79 32.21Q71.28 30.69 70.38 29.68Q69.49 28.67 67.9 28.01Q66.32 27.33 64.04 27.33Q61.76 27.33 59.96 27.93ZM39.87 47.91Q39.87 47.9 39.87 47.89L39.87 18.4Q39.87 17.94 39.54 17.44Q39.31 17.11 38.89 16.86Q38.49 16.61 37.65 16.43Q36.82 16.25 34.34 16.25Q31.86 16.25 27.21 16.99Q22.57 17.72 22.34 18.59Q21.55 21.3 21.55 24.66Q21.55 27.84 22.26 28.01Q22.3 28.02 22.34 28.02L27.03 28.02L27.03 47.89Q27.03 48.05 27.09 48.19Q27.24 48.56 27.83 48.75Q28.64 49 31.44 49Q34.25 49 37.06 48.7Q39.83 48.4 39.87 47.91ZM58.6 33.06Q58.68 33.04 58.77 33.04Q58.88 33.04 58.98 33.07Q60.2 33.42 60.2 37.98Q60.2 42.54 58.98 42.89Q58.88 42.92 58.77 42.92Q58.68 42.92 58.6 42.9Q57.44 42.58 57.44 37.98Q57.44 33.37 58.6 33.06Z" fill="#D41443" fill-opacity="1.000000" fill-rule="evenodd"/>
	<path id="cafes" d="M55.99 67.04L55.99 73L57.17 73L57.17 67.04L58.88 67.04L58.88 66.05L57.17 66.05L57.17 64.87Q57.17 64.36 57.39 64.14Q57.61 63.92 58.15 63.92L58.67 63.92L58.67 62.92L57.97 62.92Q57 62.92 56.49 63.38L56.49 63.38Q55.99 63.84 55.99 64.85L55.99 66.05L54.94 66.05L54.94 67.04L55.99 67.04ZM41.77 72.86Q42.45 73.16 43.25 73.16Q44.25 73.16 45 72.73Q45.17 72.63 45.34 72.51Q45.78 72.16 46.05 71.72Q46.3 71.3 46.4 70.8L45.2 70.8Q45.12 71.15 44.92 71.42Q44.76 71.65 44.51 71.81Q44.42 71.87 44.32 71.92Q43.84 72.17 43.24 72.17Q42.99 72.17 42.75 72.11Q42.43 72.04 42.13 71.87Q42.07 71.83 42.01 71.79Q41.57 71.5 41.29 70.98Q40.97 70.39 40.97 69.52Q40.97 68.65 41.29 68.07Q41.58 67.55 42.01 67.26Q42.07 67.22 42.13 67.18Q42.42 67.02 42.73 66.95Q42.98 66.89 43.24 66.89Q43.83 66.89 44.3 67.13Q44.41 67.18 44.51 67.25Q44.78 67.42 44.95 67.66Q45.13 67.92 45.2 68.25L46.4 68.25Q46.27 67.64 45.95 67.17Q45.7 66.81 45.33 66.53Q45.19 66.42 45.04 66.33Q44.28 65.88 43.25 65.88Q42.45 65.88 41.77 66.18Q41.61 66.25 41.47 66.34Q41.15 66.52 40.89 66.76Q40.49 67.12 40.22 67.61Q39.77 68.43 39.77 69.52Q39.77 70.62 40.22 71.44Q40.49 71.92 40.87 72.27Q41.14 72.52 41.47 72.71Q41.61 72.79 41.77 72.86ZM48.91 72.87Q49.48 73.16 50.35 73.16Q51.3 73.16 51.87 72.75Q52.32 72.42 52.59 71.99Q52.67 71.87 52.73 71.75L52.8 73L53.85 73L53.85 68.73Q53.85 67.67 53.35 66.95Q53.24 66.8 53.11 66.66Q53.06 66.61 53.01 66.56Q52.28 65.88 50.92 65.88Q50.37 65.88 49.86 66.03Q49.69 66.09 49.52 66.16Q49.07 66.34 48.71 66.65Q48.56 66.79 48.42 66.95Q48.33 67.06 48.26 67.17Q47.97 67.62 47.91 68.22L49.12 68.22Q49.2 67.77 49.46 67.47Q49.58 67.33 49.74 67.22Q49.83 67.16 49.92 67.11Q50.36 66.88 50.92 66.88Q51.56 66.88 51.99 67.18Q52.1 67.25 52.2 67.35Q52.22 67.36 52.24 67.38Q52.67 67.85 52.67 68.73L52.67 68.81L50.8 68.81Q49.4 68.81 48.58 69.38Q48.24 69.62 48.05 69.95Q47.77 70.4 47.77 71.02Q47.77 71.34 47.86 71.63Q47.93 71.87 48.05 72.09Q48.08 72.14 48.12 72.18Q48.39 72.6 48.91 72.87ZM61.56 72.82Q62.25 73.16 63.12 73.16Q64.23 73.16 64.99 72.64Q65.06 72.59 65.14 72.53Q65.57 72.18 65.84 71.74Q66.08 71.37 66.21 70.92L65.05 70.92Q64.92 71.27 64.69 71.52Q64.53 71.7 64.33 71.83Q63.84 72.17 63.12 72.17Q62.85 72.17 62.6 72.11Q62.32 72.04 62.06 71.9Q61.99 71.87 61.92 71.82Q61.51 71.56 61.23 71.11Q60.91 70.59 60.86 69.79L66.39 69.79Q66.39 69.59 66.4 69.44Q66.41 69.29 66.41 69.13Q66.41 68.64 66.28 68.19Q66.18 67.85 66.02 67.54Q65.85 67.23 65.64 66.98Q65.32 66.61 64.89 66.34Q64.87 66.33 64.86 66.32Q64.13 65.88 63.14 65.88Q62.18 65.88 61.44 66.28Q61.39 66.31 61.35 66.34Q61.04 66.52 60.79 66.75Q60.4 67.12 60.14 67.61Q59.7 68.43 59.7 69.52Q59.7 70.63 60.14 71.44Q60.41 71.94 60.81 72.3Q61.06 72.53 61.35 72.71Q61.45 72.77 61.56 72.82ZM68.69 72.63Q69.48 73.16 70.62 73.16Q71.85 73.16 72.57 72.56Q72.57 72.56 72.57 72.55Q72.94 72.25 73.11 71.85Q73.29 71.47 73.28 71.01Q73.28 70.25 72.91 69.85Q72.9 69.85 72.9 69.84Q72.53 69.45 71.96 69.25Q71.38 69.05 70.73 68.91Q69.98 68.74 69.53 68.5Q69.24 68.34 69.14 68.11Q69.09 67.99 69.09 67.84Q69.09 67.63 69.18 67.45Q69.27 67.28 69.44 67.14Q69.78 66.88 70.41 66.88Q71.06 66.88 71.44 67.18Q71.57 67.28 71.66 67.41Q71.85 67.66 71.9 68.01L73.06 68.01Q72.98 67.28 72.59 66.79Q72.44 66.59 72.24 66.44Q72.2 66.4 72.16 66.38Q71.47 65.88 70.43 65.88Q69.28 65.88 68.61 66.44Q68.6 66.45 68.58 66.46Q68.26 66.74 68.09 67.09Q67.9 67.48 67.9 67.95Q67.9 68.44 68.13 68.78Q68.19 68.88 68.28 68.97Q68.66 69.35 69.22 69.57Q69.78 69.78 70.34 69.89Q71.17 70.06 71.62 70.27Q71.76 70.33 71.86 70.44Q72.08 70.67 72.08 71.1Q72.08 71.27 72.03 71.41Q71.95 71.66 71.73 71.85Q71.38 72.17 70.64 72.17Q69.84 72.17 69.37 71.78Q69.37 71.77 69.37 71.77Q69.03 71.48 68.87 71.11Q68.82 70.97 68.79 70.82L67.58 70.82Q67.66 71.45 67.98 71.93Q68.2 72.27 68.55 72.53Q68.62 72.59 68.69 72.63ZM62.28 67.02Q62.67 66.88 63.12 66.88Q63.72 66.88 64.19 67.12Q64.41 67.24 64.6 67.41Q64.75 67.54 64.86 67.7Q65.21 68.17 65.25 68.88L60.88 68.88Q60.95 68.12 61.36 67.64Q61.48 67.5 61.62 67.39Q61.93 67.15 62.28 67.02ZM51.49 71.94Q51.07 72.17 50.53 72.17Q49.8 72.17 49.4 71.84Q49.23 71.7 49.14 71.52Q49 71.28 49 70.96Q49 70.73 49.09 70.53Q49.19 70.27 49.43 70.08Q49.86 69.72 50.89 69.72L52.67 69.72L52.67 69.73Q52.67 70.04 52.61 70.34Q52.54 70.63 52.42 70.91Q52.27 71.24 52.04 71.5Q51.88 71.68 51.68 71.82Q51.59 71.89 51.49 71.94Z" fill="#FFFFFF" fill-opacity="1.000000" fill-rule="evenodd"/>
	<circle id="Ellipse 2" cx="77.000000" cy="107.000000" r="15.000000" fill="#FFFFFF" fill-opacity="1.000000"/>
	<path id="23" d="M20.33 119.25Q20.39 119.25 20.46 119.25Q20.77 119.25 23.05 118.2Q25.33 117.13 27.4 117.13Q28.83 117.13 29.27 117.79Q29.46 118.08 29.46 118.51Q29.46 119.76 27.58 121.73Q25.69 123.71 23.44 125.36Q17.46 129.92 17.46 130.93Q17.46 139.16 19.84 139.92Q20.09 140 20.36 140L40.5 140L40.74 139.95C41.11 139.89 41.52 139.45 41.97 138.61C42.19 138.25 42.37 137.66 42.52 136.85C42.68 136.03 42.76 135.02 42.76 133.81Q42.76 131.99 42.39 130.78C42.15 129.96 41.92 129.47 41.7 129.3C41.49 129.13 41.29 129.05 41.11 129.05L31.9 129.05C33.16 128.56 34.48 127.89 35.86 127.02Q37.65 125.88 38.99 124.52C39.88 123.61 40.69 122.41 41.42 120.9Q41.86 120.01 42.13 119.07Q42.54 117.63 42.54 116.07Q42.54 113.04 41.11 111Q38.19 106.83 29.33 106.83Q25.93 106.83 23.03 107.47Q20.13 108.11 18.7 108.92Q17.28 109.73 17.28 110.37C17.28 112.24 17.59 114.19 18.22 116.22Q19.12 119.11 20.33 119.25ZM71.01 119.96Q72.2 118.08 72.2 115.43C72.2 109.7 67.79 106.83 58.95 106.83C55.15 106.83 52.27 107.28 50.3 108.17C48.52 108.99 47.63 109.8 47.63 110.61C47.63 111.46 47.92 112.92 48.51 114.97C49.09 117.03 49.74 118.05 50.44 118.05C50.6 118.05 51.49 117.73 53.11 117.09C54.74 116.44 56.22 116.12 57.55 116.12C58.88 116.12 59.55 116.58 59.55 117.5C59.55 118.7 58 119.33 54.91 119.39C53.68 119.39 53 119.42 52.88 119.48C52.23 119.72 51.91 121.09 51.91 123.58C51.91 126.06 52.23 127.41 52.88 127.62C53 127.65 53.68 127.68 54.91 127.71C58 127.81 59.55 128.48 59.55 129.74C59.55 130.66 58.82 131.11 57.36 131.11C55.91 131.11 54.43 130.84 52.92 130.29C51.42 129.74 50.61 129.46 50.48 129.46C50.06 129.46 49.61 129.73 49.15 130.27C48.69 130.8 48.28 131.71 47.91 133C47.55 134.29 47.36 135.78 47.36 137.47C47.36 137.84 47.85 138.24 48.83 138.69C49.81 139.13 51.23 139.53 53.09 139.88C54.95 140.24 56.92 140.41 59 140.41Q65.34 140.41 68.98 138.02Q70.2 137.22 71.01 136.11Q72.62 133.92 72.62 130.56C72.62 128.51 72.14 126.73 71.19 125.23C70.82 124.64 70.36 124.06 69.82 123.49C69.29 122.9 68.86 122.53 68.52 122.37Q70.11 121.38 71.01 119.96Z" fill="#D41443" fill-opacity="1.000000" fill-rule="evenodd"/>
	<path id="food trucks" d="M1.74 158.04L1.74 164L2.92 164L2.92 158.04L4.63 158.04L4.63 157.05L2.92 157.05L2.92 155.87C2.92 155.53 2.99 155.29 3.14 155.14C3.29 155 3.54 154.92 3.9 154.92L4.42 154.92L4.42 153.92L3.72 153.92Q2.75 153.92 2.24 154.38C1.91 154.68 1.74 155.17 1.74 155.85L1.74 157.05L0.69 157.05L0.69 158.04L1.74 158.04ZM23.66 163.69C24.17 164 24.78 164.16 25.47 164.16C26.11 164.16 26.63 164.03 27.05 163.76C27.47 163.49 27.79 163.18 28.02 162.85L28.13 164L29.2 164L29.2 153.92L28.02 153.92L28.02 158.21Q27.87 157.95 27.66 157.74Q27.38 157.44 26.99 157.23C26.56 157 26.05 156.88 25.48 156.88Q24.46 156.88 23.7 157.33Q23.68 157.34 23.67 157.35C23.15 157.67 22.75 158.1 22.46 158.64C22.17 159.19 22.03 159.81 22.03 160.51Q22.03 161.56 22.45 162.39C22.74 162.94 23.14 163.37 23.66 163.69ZM61.31 153.92L61.31 164L62.49 164L62.49 160.4L65.66 164L67.16 164L63.69 160.19L66.77 157.05L65.33 157.05L62.49 159.98L62.49 153.92L61.31 153.92ZM36.07 163.53Q36.62 164 37.57 164L38.63 164L38.63 162.99L37.9 162.99C37.46 162.99 37.14 162.91 36.96 162.76Q36.7 162.53 36.7 161.87L36.7 158.04L38.74 158.04L38.74 157.05L36.7 157.05L36.7 155.39L35.68 155.39L35.52 157.05L34.32 157.05L34.32 158.04L35.52 158.04L35.52 161.87C35.52 162.67 35.7 163.23 36.07 163.53ZM7.14 163.72C7.67 164.01 8.26 164.16 8.91 164.16Q9.68 164.16 10.34 163.88Q10.51 163.81 10.68 163.72C11.21 163.42 11.63 163 11.93 162.45Q12.39 161.63 12.39 160.52Q12.39 159.42 11.94 158.6Q11.66 158.09 11.24 157.72Q11 157.5 10.7 157.33C10.18 157.03 9.59 156.88 8.94 156.88Q8.17 156.88 7.52 157.16Q7.34 157.23 7.16 157.33C6.64 157.63 6.22 158.05 5.91 158.6Q5.45 159.42 5.45 160.52Q5.45 161.63 5.91 162.45C6.21 163 6.62 163.42 7.14 163.72ZM15.43 163.72C15.96 164.01 16.54 164.16 17.2 164.16C17.85 164.16 18.44 164.01 18.97 163.72C19.5 163.42 19.91 163 20.22 162.45Q20.68 161.63 20.68 160.52Q20.68 159.42 20.23 158.6Q19.94 158.09 19.53 157.72Q19.28 157.5 18.99 157.33C18.47 157.03 17.88 156.88 17.23 156.88Q16.46 156.88 15.81 157.16Q15.63 157.23 15.45 157.33C14.93 157.63 14.51 158.05 14.2 158.6Q13.74 159.42 13.74 160.52Q13.74 161.63 14.19 162.45C14.5 163 14.91 163.42 15.43 163.72ZM40.24 157.05L40.24 164L41.42 164L41.42 160.5Q41.42 159.59 41.73 159.07C41.93 158.72 42.21 158.48 42.55 158.34C42.9 158.19 43.27 158.12 43.68 158.12L44.01 158.12L44.01 156.88C43.36 156.88 42.82 157.02 42.38 157.29C41.94 157.56 41.62 157.92 41.4 158.38L41.31 157.05L40.24 157.05ZM54.74 163.71C55.27 164.01 55.86 164.16 56.52 164.16C57.35 164.16 58.04 163.94 58.61 163.51C59.18 163.07 59.53 162.5 59.67 161.8L58.47 161.8Q58.39 162.15 58.2 162.42Q58.03 162.65 57.78 162.81C57.42 163.05 56.99 163.17 56.51 163.17Q56.26 163.17 56.02 163.11Q55.7 163.04 55.4 162.87C55.06 162.67 54.78 162.37 54.56 161.98C54.35 161.59 54.24 161.1 54.24 160.52C54.24 159.94 54.35 159.46 54.56 159.07C54.78 158.67 55.06 158.38 55.4 158.18C55.75 157.99 56.12 157.89 56.51 157.89C56.99 157.89 57.42 158.01 57.78 158.25C58.15 158.49 58.38 158.82 58.47 159.25L59.67 159.25C59.52 158.53 59.17 157.96 58.6 157.53C58.04 157.1 57.35 156.88 56.52 156.88C55.86 156.88 55.27 157.03 54.74 157.34C54.21 157.64 53.8 158.07 53.49 158.61C53.19 159.16 53.04 159.8 53.04 160.52C53.04 161.25 53.19 161.89 53.49 162.44C53.8 162.98 54.21 163.41 54.74 163.71ZM68.55 163.53C69.1 163.95 69.79 164.16 70.62 164.16C71.44 164.16 72.09 163.96 72.57 163.55Q72.94 163.25 73.11 162.86Q73.29 162.47 73.28 162.01C73.28 161.5 73.16 161.12 72.91 160.85C72.66 160.59 72.35 160.39 71.96 160.25C71.57 160.12 71.16 160 70.73 159.91C70.23 159.8 69.83 159.66 69.53 159.5C69.24 159.34 69.09 159.12 69.09 158.84C69.09 158.56 69.21 158.32 69.44 158.14Q69.78 157.88 70.41 157.88C70.84 157.88 71.18 157.98 71.44 158.18C71.7 158.38 71.85 158.66 71.9 159.01L73.06 159.01Q72.98 158.28 72.59 157.78Q72.44 157.59 72.24 157.44C71.77 157.07 71.16 156.88 70.43 156.88C69.65 156.88 69.04 157.08 68.58 157.46C68.13 157.85 67.9 158.35 67.9 158.95C67.9 159.38 68.03 159.72 68.28 159.97C68.53 160.23 68.85 160.42 69.22 160.57C69.59 160.71 69.97 160.81 70.34 160.89Q71.17 161.06 71.62 161.27C71.93 161.41 72.08 161.69 72.08 162.11C72.08 162.39 71.96 162.64 71.73 162.85C71.49 163.06 71.13 163.17 70.64 163.17C70.1 163.17 69.68 163.04 69.37 162.77C69.05 162.5 68.86 162.19 68.79 161.83L67.58 161.83Q67.66 162.46 67.98 162.93Q68.2 163.27 68.55 163.53ZM46.28 163.73Q46.92 164.16 47.86 164.16C48.39 164.16 48.87 164.04 49.29 163.79C49.72 163.53 50.04 163.19 50.25 162.75L50.34 164L51.4 164L51.4 157.05L50.22 157.05L50.22 160.65Q50.22 161.85 49.63 162.5C49.23 162.94 48.73 163.15 48.12 163.15C46.94 163.15 46.35 162.43 46.35 160.98L46.35 157.05L45.17 157.05L45.17 161.11Q45.17 162.67 45.9 163.41Q46.07 163.59 46.28 163.73ZM10.03 162.86C9.68 163.06 9.31 163.15 8.91 163.15Q8.63 163.15 8.36 163.09Q8.07 163.01 7.81 162.86Q7.77 162.84 7.73 162.81Q7.27 162.52 6.98 161.98C6.76 161.59 6.66 161.1 6.66 160.52Q6.66 159.65 6.98 159.07C7.19 158.67 7.47 158.38 7.81 158.18C8.16 157.99 8.54 157.89 8.94 157.89C9.33 157.89 9.7 157.99 10.04 158.18C10.39 158.38 10.67 158.67 10.88 159.07C11.09 159.46 11.19 159.94 11.19 160.52C11.19 161.1 11.08 161.59 10.87 161.98Q10.59 162.49 10.16 162.78Q10.1 162.82 10.03 162.86ZM18.32 162.86C17.97 163.06 17.6 163.15 17.2 163.15C16.8 163.15 16.44 163.06 16.1 162.86Q16.06 162.84 16.02 162.81Q15.56 162.52 15.26 161.98C15.05 161.59 14.94 161.1 14.94 160.52Q14.94 159.65 15.26 159.07C15.48 158.67 15.76 158.38 16.1 158.18C16.45 157.99 16.82 157.89 17.23 157.89C17.62 157.89 17.99 157.99 18.33 158.18C18.68 158.38 18.95 158.67 19.16 159.07C19.37 159.46 19.48 159.94 19.48 160.52C19.48 161.1 19.37 161.59 19.16 161.98Q18.88 162.49 18.45 162.78Q18.39 162.82 18.32 162.86ZM26.83 162.81C26.48 163.03 26.06 163.14 25.6 163.14C25.14 163.14 24.73 163.03 24.37 162.81C24.01 162.59 23.73 162.29 23.53 161.9C23.33 161.5 23.23 161.05 23.23 160.52C23.23 160 23.33 159.54 23.53 159.15C23.73 158.76 24.01 158.45 24.37 158.24C24.73 158.02 25.14 157.9 25.6 157.9C26.06 157.9 26.48 158.02 26.83 158.24C27.19 158.45 27.47 158.76 27.67 159.15C27.88 159.54 27.98 160 27.98 160.52C27.98 161.05 27.88 161.5 27.67 161.9Q27.48 162.28 27.19 162.55Q27.02 162.7 26.83 162.81Z" fill="#FFFFFF" fill-opacity="1.000000" fill-rule="evenodd"/>
</svg>
