
<svg version="1.0" xmlns="http://www.w3.org/2000/svg"
 width="1500.000000pt" height="750.000000pt" viewBox="0 0 1500.000000 750.000000"
 preserveAspectRatio="xMidYMid meet">

<g transform="translate(0.000000,750.000000) scale(0.100000,-0.100000)"
fill="#000000" stroke="none">
<path d="M2715 4649 c-151 -110 -321 -167 -525 -176 -69 -3 -136 -10 -150 -17
-51 -23 -53 -44 -41 -343 20 -482 49 -677 129 -845 66 -140 138 -203 392 -342
58 -32 142 -82 187 -112 49 -33 92 -54 109 -54 16 0 63 23 118 59 50 32 143
86 206 121 267 147 338 222 410 438 51 152 87 513 91 911 1 121 0 124 -25 150
-25 24 -34 26 -154 33 -137 7 -147 8 -261 40 -103 28 -181 65 -276 132 -102
72 -118 72 -210 5z m218 -230 c37 -21 93 -47 125 -59 75 -28 240 -66 325 -75
l67 -7 0 -86 c0 -248 -34 -601 -70 -730 -50 -181 -94 -226 -360 -372 -63 -35
-134 -76 -157 -92 l-42 -28 -135 77 c-74 43 -163 94 -197 113 -228 128 -275
281 -305 971 l-6 145 96 13 c183 24 363 84 481 160 57 37 61 38 85 23 14 -9
55 -33 93 -53z"/>
<path d="M11640 3780 l0 -560 115 0 115 0 0 560 0 560 -115 0 -115 0 0 -560z"/>
<path d="M12018 3780 l2 -561 108 3 107 3 1 558 1 557 -111 0 -111 0 3 -560z"/>
<path d="M5080 4180 l0 -95 167 0 168 0 3 -432 2 -433 115 0 115 0 2 433 3
432 173 3 172 2 0 90 0 90 -460 2 -460 3 0 -95z"/>
<path d="M9233 4272 c-65 -1 -113 -7 -113 -12 0 -6 26 -90 59 -188 32 -97 88
-269 125 -382 37 -113 87 -265 113 -338 l45 -133 127 3 126 3 119 358 c66 196
124 357 128 357 5 0 10 -6 12 -12 6 -20 119 -368 177 -545 l53 -163 127 0 126
0 86 258 c111 333 257 784 257 791 0 3 -49 5 -109 3 l-110 -3 -123 -375 c-94
-288 -125 -371 -134 -362 -6 7 -42 108 -79 223 -38 116 -91 280 -119 365 l-51
155 -105 0 c-59 0 -108 -4 -111 -10 -4 -5 -48 -134 -98 -285 -51 -151 -106
-314 -123 -362 -29 -83 -44 -104 -52 -75 -11 36 -173 546 -200 629 -18 54 -34
99 -37 100 -2 2 -55 2 -116 0z"/>
<path d="M8300 4110 l0 -100 -65 0 c-53 0 -65 -3 -65 -16 0 -12 -5 -15 -22 -9
-120 38 -170 47 -283 47 -143 1 -227 -21 -292 -76 -107 -92 -112 -263 -11
-339 46 -34 147 -63 323 -92 83 -14 117 -49 94 -98 -18 -39 -61 -52 -174 -51
-100 1 -184 22 -239 60 -19 13 -22 8 -57 -64 -44 -92 -46 -89 76 -128 154 -50
323 -49 449 2 128 52 182 145 156 269 -9 43 -19 61 -55 94 -48 45 -95 61 -244
87 -129 22 -162 34 -181 67 -13 24 -13 30 0 54 36 65 178 77 315 28 38 -14 69
-25 70 -25 1 0 14 27 30 60 16 33 32 60 37 60 4 0 8 -22 8 -50 l0 -50 65 0 65
0 0 -203 c0 -288 21 -343 151 -402 82 -37 200 -39 283 -6 l55 23 -19 41 c-10
23 -24 57 -31 75 -9 25 -16 31 -28 26 -9 -4 -39 -9 -67 -11 -46 -5 -54 -2 -85
25 l-34 30 -3 201 -3 200 103 3 103 3 0 83 0 82 -102 0 -103 0 0 100 0 100
-110 0 -110 0 0 -100z"/>
<path d="M13290 4110 l0 -100 -65 0 -65 0 0 -85 0 -85 65 0 65 0 0 -208 c0
-247 9 -290 70 -346 22 -19 57 -43 77 -52 84 -35 212 -35 295 0 l36 16 -26 75
c-23 67 -29 75 -47 69 -43 -14 -97 -16 -126 -4 -53 22 -59 48 -59 260 l0 190
100 0 100 0 0 85 0 85 -100 0 -100 0 0 100 0 100 -110 0 -110 0 0 -100z"/>
<path d="M6439 4030 c-65 -11 -129 -42 -163 -78 -16 -17 -33 -29 -38 -26 -4 3
-8 25 -8 50 l0 44 -70 1 c-38 0 -85 1 -102 2 l-33 1 -3 -402 -2 -402 110 0
110 0 0 188 c0 216 10 290 44 342 32 49 99 81 171 83 30 1 55 5 56 10 4 20 5
174 1 185 -5 13 -6 13 -73 2z"/>
<path d="M11012 4030 c-89 -12 -177 -42 -231 -78 -11 -8 -6 -23 25 -78 20 -38
39 -71 41 -73 2 -3 24 6 51 18 113 53 216 60 294 22 53 -25 78 -58 85 -111 l5
-37 -153 -6 c-85 -2 -178 -10 -207 -17 -138 -31 -211 -160 -172 -301 21 -76
120 -143 233 -159 103 -15 232 20 275 75 29 37 42 31 42 -20 l0 -45 101 0 100
0 -3 293 c-3 283 -4 294 -27 345 -32 71 -97 127 -176 151 -76 24 -198 33 -283
21z m266 -523 c3 -56 1 -60 -35 -97 -91 -91 -261 -74 -286 29 -7 27 12 80 35
99 24 20 95 30 193 29 l90 -2 3 -58z"/>
<path d="M12663 4030 c-124 -23 -249 -112 -298 -215 -35 -76 -50 -180 -35
-263 14 -82 30 -121 75 -182 135 -184 494 -219 679 -67 l30 24 -58 66 -59 66
-33 -25 c-64 -49 -172 -67 -259 -43 -77 21 -168 120 -152 163 6 14 42 16 313
16 l306 0 -4 88 c-3 75 -9 99 -37 155 -47 94 -130 170 -215 196 -78 24 -184
33 -253 21z m186 -177 c65 -41 111 -100 111 -143 0 -20 -5 -20 -210 -20 -115
0 -210 2 -210 4 0 1 5 18 11 37 24 69 73 115 149 140 35 11 117 1 149 -18z"/>
<path d="M6592 3730 c3 -286 4 -297 27 -348 80 -178 350 -233 517 -106 50 38
64 42 62 17 -1 -10 0 -30 0 -45 l2 -28 100 0 100 0 0 400 0 400 -100 0 c-55 0
-103 1 -107 3 -5 1 -10 -106 -13 -238 -5 -223 -7 -243 -27 -285 -38 -77 -116
-113 -211 -99 -51 7 -106 55 -123 107 -7 22 -12 124 -13 274 l-1 239 -108 2
-108 2 3 -295z"/>
</g>
</svg>
