<svg width="19.999878" height="20.000000" viewBox="0 0 19.9999 20" fill="none" xmlns="http://www.w3.org/2000/svg" xmlns:xlink="http://www.w3.org/1999/xlink">
	<desc>
			Created with Pixso.
	</desc>
	<defs/>
	<path id="Vector" d="M10 0C4.5 0 0 4.5 0 10C0 14.68 3.28 18.94 7.65 20L7.65 16.69C7.22 16.78 6.82 16.78 6.38 16.65C5.79 16.48 5.31 16.09 4.95 15.49C4.72 15.1 4.32 14.69 3.9 14.72L3.8 13.55C4.71 13.47 5.49 14.1 5.96 14.89C6.17 15.24 6.41 15.44 6.71 15.53C7.01 15.62 7.33 15.58 7.7 15.45C7.79 14.7 8.13 14.43 8.38 14.04L8.38 14.04C5.78 13.65 4.74 12.27 4.33 11.17C3.78 9.73 4.08 7.92 5.04 6.77C5.06 6.75 5.09 6.69 5.08 6.65C4.64 5.32 5.18 4.21 5.2 4.09C5.71 4.24 5.79 3.94 7.42 4.93L7.7 5.1C7.82 5.17 7.78 5.13 7.9 5.12C8.57 4.93 9.29 4.83 9.99 4.82C10.71 4.83 11.42 4.93 12.12 5.12L12.21 5.13C12.21 5.13 12.24 5.13 12.29 5.1C14.32 3.87 14.25 4.27 14.79 4.09C14.81 4.21 15.35 5.33 14.91 6.65C14.85 6.83 16.67 8.5 15.66 11.17C15.25 12.27 14.21 13.65 11.61 14.04L11.61 14.04C11.94 14.54 12.34 14.82 12.34 15.87L12.34 20C16.71 18.94 19.99 14.68 19.99 10C20 4.5 15.49 0 10 0L10 0Z" fill="#FFFFFF" fill-opacity="1.000000" fill-rule="nonzero"/>
</svg>
